<mxfile host="app.diagrams.net" modified="2024-01-18T02:19:54.906Z" agent="Mozilla/5.0 (Windows NT 10.0; WOW64) AppleWebKit/537.36 (KHTML, like Gecko) Chrome/86.0.4240.198 Safari/537.36" etag="tZUdErHlnqx1z5Mzdy7J" version="22.1.18" type="github">
  <diagram name="第 1 页" id="d2w47dnHY5x7jz4g65f2">
    <mxGraphModel dx="1000" dy="539" grid="0" gridSize="10" guides="1" tooltips="1" connect="1" arrows="1" fold="1" page="1" pageScale="1" pageWidth="3300" pageHeight="4681" math="0" shadow="0">
      <root>
        <mxCell id="0" />
        <mxCell id="1" parent="0" />
        <mxCell id="noPxRsttLBg4zywBaVQB-3" style="rounded=0;orthogonalLoop=1;jettySize=auto;html=1;entryX=0;entryY=0.5;entryDx=0;entryDy=0;endArrow=none;endFill=0;" edge="1" parent="1" target="noPxRsttLBg4zywBaVQB-2">
          <mxGeometry relative="1" as="geometry">
            <mxPoint x="450" y="433" as="sourcePoint" />
          </mxGeometry>
        </mxCell>
        <mxCell id="noPxRsttLBg4zywBaVQB-1" value="&lt;font style=&quot;font-size: 16px;&quot;&gt;用户&lt;/font&gt;" style="shape=umlActor;verticalLabelPosition=bottom;verticalAlign=top;html=1;" vertex="1" parent="1">
          <mxGeometry x="410" y="409" width="34" height="66" as="geometry" />
        </mxCell>
        <mxCell id="noPxRsttLBg4zywBaVQB-6" style="rounded=0;orthogonalLoop=1;jettySize=auto;html=1;exitX=1;exitY=0;exitDx=0;exitDy=0;entryX=0;entryY=0.5;entryDx=0;entryDy=0;dashed=1;" edge="1" parent="1" source="noPxRsttLBg4zywBaVQB-2" target="noPxRsttLBg4zywBaVQB-4">
          <mxGeometry relative="1" as="geometry" />
        </mxCell>
        <mxCell id="noPxRsttLBg4zywBaVQB-7" value="&amp;lt;&amp;lt;包含&amp;gt;&amp;gt;" style="edgeLabel;html=1;align=center;verticalAlign=middle;resizable=0;points=[];" vertex="1" connectable="0" parent="noPxRsttLBg4zywBaVQB-6">
          <mxGeometry x="-0.0975" y="3" relative="1" as="geometry">
            <mxPoint x="-3" y="-6" as="offset" />
          </mxGeometry>
        </mxCell>
        <mxCell id="noPxRsttLBg4zywBaVQB-20" style="rounded=0;orthogonalLoop=1;jettySize=auto;html=1;exitX=0.984;exitY=0.641;exitDx=0;exitDy=0;entryX=0;entryY=0.5;entryDx=0;entryDy=0;dashed=1;exitPerimeter=0;" edge="1" parent="1" source="noPxRsttLBg4zywBaVQB-2" target="noPxRsttLBg4zywBaVQB-19">
          <mxGeometry relative="1" as="geometry" />
        </mxCell>
        <mxCell id="noPxRsttLBg4zywBaVQB-2" value="&lt;font style=&quot;font-size: 16px;&quot;&gt;数据源管理&lt;/font&gt;" style="ellipse;whiteSpace=wrap;html=1;" vertex="1" parent="1">
          <mxGeometry x="577" y="397" width="136" height="74" as="geometry" />
        </mxCell>
        <mxCell id="noPxRsttLBg4zywBaVQB-4" value="&lt;span style=&quot;font-size: 16px;&quot;&gt;删除数据源&lt;/span&gt;" style="ellipse;whiteSpace=wrap;html=1;" vertex="1" parent="1">
          <mxGeometry x="869" y="231" width="136" height="74" as="geometry" />
        </mxCell>
        <mxCell id="noPxRsttLBg4zywBaVQB-28" style="rounded=0;orthogonalLoop=1;jettySize=auto;html=1;exitX=0.969;exitY=0.269;exitDx=0;exitDy=0;entryX=0.015;entryY=0.677;entryDx=0;entryDy=0;exitPerimeter=0;entryPerimeter=0;startArrow=classic;startFill=1;endArrow=none;endFill=0;dashed=1;" edge="1" parent="1" source="noPxRsttLBg4zywBaVQB-5" target="noPxRsttLBg4zywBaVQB-27">
          <mxGeometry relative="1" as="geometry" />
        </mxCell>
        <mxCell id="noPxRsttLBg4zywBaVQB-5" value="&lt;span style=&quot;font-size: 16px;&quot;&gt;添加/修改数据源&lt;/span&gt;" style="ellipse;whiteSpace=wrap;html=1;" vertex="1" parent="1">
          <mxGeometry x="869" y="329" width="136" height="74" as="geometry" />
        </mxCell>
        <mxCell id="noPxRsttLBg4zywBaVQB-9" style="rounded=0;orthogonalLoop=1;jettySize=auto;html=1;exitX=0.988;exitY=0.34;exitDx=0;exitDy=0;entryX=0;entryY=0.5;entryDx=0;entryDy=0;dashed=1;exitPerimeter=0;" edge="1" parent="1" source="noPxRsttLBg4zywBaVQB-2" target="noPxRsttLBg4zywBaVQB-5">
          <mxGeometry relative="1" as="geometry">
            <mxPoint x="703" y="418" as="sourcePoint" />
            <mxPoint x="846" y="335" as="targetPoint" />
          </mxGeometry>
        </mxCell>
        <mxCell id="noPxRsttLBg4zywBaVQB-10" value="&amp;lt;&amp;lt;包含&amp;gt;&amp;gt;" style="edgeLabel;html=1;align=center;verticalAlign=middle;resizable=0;points=[];" vertex="1" connectable="0" parent="noPxRsttLBg4zywBaVQB-9">
          <mxGeometry x="-0.0975" y="3" relative="1" as="geometry">
            <mxPoint x="5" y="-13" as="offset" />
          </mxGeometry>
        </mxCell>
        <mxCell id="noPxRsttLBg4zywBaVQB-15" value="&lt;span style=&quot;font-size: 16px;&quot;&gt;测试连接&lt;/span&gt;" style="ellipse;whiteSpace=wrap;html=1;" vertex="1" parent="1">
          <mxGeometry x="1151" y="331" width="136" height="74" as="geometry" />
        </mxCell>
        <mxCell id="noPxRsttLBg4zywBaVQB-17" style="rounded=0;orthogonalLoop=1;jettySize=auto;html=1;dashed=1;exitX=0;exitY=0.5;exitDx=0;exitDy=0;entryX=1;entryY=0.5;entryDx=0;entryDy=0;" edge="1" parent="1" source="noPxRsttLBg4zywBaVQB-15" target="noPxRsttLBg4zywBaVQB-5">
          <mxGeometry relative="1" as="geometry">
            <mxPoint x="1058" y="492" as="sourcePoint" />
            <mxPoint x="970" y="467" as="targetPoint" />
          </mxGeometry>
        </mxCell>
        <mxCell id="noPxRsttLBg4zywBaVQB-18" value="&amp;lt;&amp;lt;扩展&amp;gt;&amp;gt;" style="edgeLabel;html=1;align=center;verticalAlign=middle;resizable=0;points=[];" vertex="1" connectable="0" parent="1">
          <mxGeometry x="865.9952694749917" y="408.99777309667417" as="geometry">
            <mxPoint x="222" y="-53" as="offset" />
          </mxGeometry>
        </mxCell>
        <mxCell id="noPxRsttLBg4zywBaVQB-19" value="&lt;span style=&quot;font-size: 16px;&quot;&gt;查询数据源&lt;/span&gt;" style="ellipse;whiteSpace=wrap;html=1;" vertex="1" parent="1">
          <mxGeometry x="866" y="426" width="136" height="74" as="geometry" />
        </mxCell>
        <mxCell id="noPxRsttLBg4zywBaVQB-21" value="&lt;span style=&quot;font-size: 16px;&quot;&gt;超时检测&lt;/span&gt;" style="ellipse;whiteSpace=wrap;html=1;" vertex="1" parent="1">
          <mxGeometry x="869" y="528" width="136" height="74" as="geometry" />
        </mxCell>
        <mxCell id="noPxRsttLBg4zywBaVQB-24" value="&amp;lt;&amp;lt;包含&amp;gt;&amp;gt;" style="edgeLabel;html=1;align=center;verticalAlign=middle;resizable=0;points=[];" vertex="1" connectable="0" parent="1">
          <mxGeometry x="774.9952694749917" y="436.99777309667417" as="geometry">
            <mxPoint x="16" y="3" as="offset" />
          </mxGeometry>
        </mxCell>
        <mxCell id="noPxRsttLBg4zywBaVQB-25" style="rounded=0;orthogonalLoop=1;jettySize=auto;html=1;entryX=0;entryY=0.5;entryDx=0;entryDy=0;dashed=1;exitX=1;exitY=1;exitDx=0;exitDy=0;" edge="1" parent="1" source="noPxRsttLBg4zywBaVQB-2" target="noPxRsttLBg4zywBaVQB-21">
          <mxGeometry relative="1" as="geometry">
            <mxPoint x="703" y="470" as="sourcePoint" />
            <mxPoint x="848" y="573" as="targetPoint" />
          </mxGeometry>
        </mxCell>
        <mxCell id="noPxRsttLBg4zywBaVQB-26" value="&amp;lt;&amp;lt;包含&amp;gt;&amp;gt;" style="edgeLabel;html=1;align=center;verticalAlign=middle;resizable=0;points=[];" vertex="1" connectable="0" parent="1">
          <mxGeometry x="774.9952694749917" y="489.99777309667417" as="geometry">
            <mxPoint x="16" y="3" as="offset" />
          </mxGeometry>
        </mxCell>
        <mxCell id="noPxRsttLBg4zywBaVQB-27" value="&lt;span style=&quot;font-size: 16px;&quot;&gt;添加连接池配置&lt;/span&gt;" style="ellipse;whiteSpace=wrap;html=1;" vertex="1" parent="1">
          <mxGeometry x="1151" y="237" width="136" height="74" as="geometry" />
        </mxCell>
        <mxCell id="noPxRsttLBg4zywBaVQB-30" value="&amp;lt;&amp;lt;扩展&amp;gt;&amp;gt;" style="edgeLabel;html=1;align=center;verticalAlign=middle;resizable=0;points=[];" vertex="1" connectable="0" parent="1">
          <mxGeometry x="857.9952694749917" y="351.99777309667417" as="geometry">
            <mxPoint x="222" y="-53" as="offset" />
          </mxGeometry>
        </mxCell>
        <mxCell id="noPxRsttLBg4zywBaVQB-31" value="&lt;span style=&quot;font-size: 16px;&quot;&gt;添加SSL配置&lt;/span&gt;" style="ellipse;whiteSpace=wrap;html=1;" vertex="1" parent="1">
          <mxGeometry x="1151" y="422" width="136" height="74" as="geometry" />
        </mxCell>
        <mxCell id="noPxRsttLBg4zywBaVQB-32" style="rounded=0;orthogonalLoop=1;jettySize=auto;html=1;dashed=1;exitX=0.001;exitY=0.35;exitDx=0;exitDy=0;entryX=1;entryY=0.5;entryDx=0;entryDy=0;exitPerimeter=0;" edge="1" parent="1" source="noPxRsttLBg4zywBaVQB-31">
          <mxGeometry relative="1" as="geometry">
            <mxPoint x="1138.0000000000005" y="462" as="sourcePoint" />
            <mxPoint x="1002" y="379" as="targetPoint" />
          </mxGeometry>
        </mxCell>
        <mxCell id="noPxRsttLBg4zywBaVQB-33" value="&amp;lt;&amp;lt;扩展&amp;gt;&amp;gt;" style="edgeLabel;html=1;align=center;verticalAlign=middle;resizable=0;points=[];" vertex="1" connectable="0" parent="1">
          <mxGeometry x="872.9952694749917" y="455.99777309667417" as="geometry">
            <mxPoint x="222" y="-53" as="offset" />
          </mxGeometry>
        </mxCell>
      </root>
    </mxGraphModel>
  </diagram>
</mxfile>
